<svg width="186px" height="25px" viewBox="0 0 186 25" version="1.1" xmlns="http://www.w3.org/2000/svg" xmlns:xlink="http://www.w3.org/1999/xlink">
    <!-- Generator: Sketch 48.2 (47327) - http://www.bohemiancoding.com/sketch -->
    <desc>Created with Sketch.</desc>
    <defs></defs>
    <g id="Page-1" stroke="none" stroke-width="1" fill="none" fill-rule="evenodd">
        <g id="Artboard" fill="#C9C9C9">
            <path d="M0,12.640056 C0,9.17366947 1.40112994,6.09243697 3.50282486,3.85154062 C5.63954802,1.64565826 8.6519774,0.210084034 11.979661,0.210084034 C17.5841808,0.210084034 21.9977401,3.71148459 23.3988701,9.24369748 L19.8960452,9.24369748 C18.6,5.56722689 15.5875706,3.71148459 11.979661,3.71148459 C9.63276836,3.71148459 7.4960452,4.72689076 5.95480226,6.33753501 C4.41355932,7.94817927 3.43276836,10.1190476 3.43276836,12.640056 C3.43276836,15.0910364 4.41355932,17.2619048 5.95480226,18.872549 C7.4960452,20.4831933 9.63276836,21.4985994 11.979661,21.4985994 C15.6926554,21.4985994 18.8451977,19.3627451 20.1062147,15.6512605 L23.5740113,15.6512605 C22.1728814,21.2184874 17.6892655,25 11.979661,25 C8.6519774,25 5.63954802,23.5994398 3.50282486,21.3585434 C1.40112994,19.1176471 0,16.0364146 0,12.640056 Z M30.159322,14.0756303 L30.159322,12.394958 L34.2926554,12.394958 C37.2700565,12.394958 38.7412429,10.2591036 38.7412429,8.1232493 C38.7412429,6.02240896 37.2700565,3.88655462 34.2926554,3.88655462 L28.8632768,3.88655462 L28.8632768,24.82493 L25.360452,24.82493 L25.360452,0.31512605 L34.2926554,0.31512605 C39.6169492,0.31512605 42.279096,4.23669468 42.279096,8.1232493 C42.279096,11.5896359 40.1423729,14.8809524 35.9389831,15.6162465 L43.680226,24.82493 L39.0915254,24.82493 L30.159322,14.0756303 Z M52.8926554,5.6372549 L49.8101695,14.2857143 L55.9050847,14.2857143 L52.8926554,5.6372549 Z M60.2135593,24.82493 L57.2711864,17.6120448 L48.479096,17.6120448 C47.5333333,19.8529412 46.3073446,22.7941176 45.5367232,24.82493 L41.7186441,24.82493 L51.5615819,0 L54.1536723,0 L63.9966102,24.82493 L60.2135593,24.82493 Z M67.779661,14.3557423 L67.779661,24.82493 L64.2418079,24.82493 L64.2418079,0.350140056 L78.8485876,0.350140056 L78.8485876,3.88655462 L67.779661,3.88655462 L67.779661,10.7843137 L77.5875706,10.7843137 L77.5875706,14.3557423 L67.779661,14.3557423 Z M90.8983051,24.929972 L87.360452,24.929972 L87.360452,3.88655462 L79.9344633,3.88655462 L79.9344633,0.31512605 L98.2892655,0.31512605 L98.2892655,3.88655462 L90.8983051,3.88655462 L90.8983051,24.929972 Z M106.100565,5.6372549 L103.018079,14.2857143 L109.112994,14.2857143 L106.100565,5.6372549 Z M113.421469,24.82493 L110.479096,17.6120448 L101.687006,17.6120448 C100.741243,19.8529412 99.5152542,22.7941176 98.7446328,24.82493 L94.9265537,24.82493 L104.769492,0 L107.361582,0 L117.20452,24.82493 L113.421469,24.82493 Z M121.022599,0.350140056 L121.022599,21.2885154 L132.546893,21.2885154 L132.546893,24.82493 L117.484746,24.82493 L117.484746,0.350140056 L121.022599,0.350140056 Z M137.485876,14.3557423 L137.485876,21.2885154 L148.870056,21.2885154 L148.870056,24.82493 L133.912994,24.82493 L133.912994,0.350140056 L148.835028,0.350140056 L148.835028,3.88655462 L137.485876,3.88655462 L137.485876,10.7843137 L148.589831,10.7843137 L148.589831,14.3557423 L137.485876,14.3557423 Z M155.280226,14.0756303 L155.280226,12.394958 L159.413559,12.394958 C162.39096,12.394958 163.862147,10.2591036 163.862147,8.1232493 C163.862147,6.02240896 162.39096,3.88655462 159.413559,3.88655462 L153.984181,3.88655462 L153.984181,24.82493 L150.481356,24.82493 L150.481356,0.31512605 L159.413559,0.31512605 C164.737853,0.31512605 167.4,4.23669468 167.4,8.1232493 C167.4,11.5896359 165.263277,14.8809524 161.059887,15.6162465 L168.80113,24.82493 L164.212429,24.82493 L155.280226,14.0756303 Z M178.60904,24.929972 L175.071186,24.929972 L175.071186,3.88655462 L167.645198,3.88655462 L167.645198,0.31512605 L186,0.31512605 L186,3.88655462 L178.60904,3.88655462 L178.60904,24.929972 Z" id="CRAFTALERT"></path>
        </g>
    </g>
</svg>
