
<svg width="372px" height="50px" viewBox="0 0 372 50" version="1.1" xmlns="http://www.w3.org/2000/svg" xmlns:xlink="http://www.w3.org/1999/xlink">
    <!-- Generator: Sketch 48.2 (47327) - http://www.bohemiancoding.com/sketch -->
    <desc>Created with Sketch.</desc>
    <defs></defs>
    <g id="Page-1" stroke="none" stroke-width="1" fill="none" fill-rule="evenodd">
        <g id="Artboard" fill="#FF9900">
            <path d="M0,25.280112 C0,18.3473389 2.80225989,12.1848739 7.00564972,7.70308123 C11.279096,3.29131653 17.3039548,0.420168067 23.959322,0.420168067 C35.1683616,0.420168067 43.9954802,7.42296919 46.7977401,18.487395 L39.7920904,18.487395 C37.2,11.1344538 31.1751412,7.42296919 23.959322,7.42296919 C19.2655367,7.42296919 14.9920904,9.45378151 11.9096045,12.67507 C8.82711864,15.8963585 6.86553672,20.2380952 6.86553672,25.280112 C6.86553672,30.1820728 8.82711864,34.5238095 11.9096045,37.745098 C14.9920904,40.9663866 19.2655367,42.9971989 23.959322,42.9971989 C31.3853107,42.9971989 37.6903955,38.7254902 40.2124294,31.302521 L47.1480226,31.302521 C44.3457627,42.4369748 35.3785311,50 23.959322,50 C17.3039548,50 11.279096,47.1988796 7.00564972,42.7170868 C2.80225989,38.2352941 0,32.0728291 0,25.280112 Z M60.3186441,28.1512605 L60.3186441,24.789916 L68.5853107,24.789916 C74.540113,24.789916 77.4824859,20.5182073 77.4824859,16.2464986 C77.4824859,12.0448179 74.540113,7.77310924 68.5853107,7.77310924 L57.7265537,7.77310924 L57.7265537,49.6498599 L50.720904,49.6498599 L50.720904,0.630252101 L68.5853107,0.630252101 C79.2338983,0.630252101 84.5581921,8.47338936 84.5581921,16.2464986 C84.5581921,23.1792717 80.2847458,29.7619048 71.8779661,31.232493 L87.360452,49.6498599 L78.1830508,49.6498599 L60.3186441,28.1512605 Z M105.785311,11.2745098 L99.620339,28.5714286 L111.810169,28.5714286 L105.785311,11.2745098 Z M120.427119,49.6498599 L114.542373,35.2240896 L96.9581921,35.2240896 C95.0666667,39.7058824 92.6146893,45.5882353 91.0734463,49.6498599 L83.4372881,49.6498599 L103.123164,0 L108.307345,0 L127.99322,49.6498599 L120.427119,49.6498599 Z M135.559322,28.7114846 L135.559322,49.6498599 L128.483616,49.6498599 L128.483616,0.700280112 L157.697175,0.700280112 L157.697175,7.77310924 L135.559322,7.77310924 L135.559322,21.5686275 L155.175141,21.5686275 L155.175141,28.7114846 L135.559322,28.7114846 Z M181.79661,49.859944 L174.720904,49.859944 L174.720904,7.77310924 L159.868927,7.77310924 L159.868927,0.630252101 L196.578531,0.630252101 L196.578531,7.77310924 L181.79661,7.77310924 L181.79661,49.859944 Z M212.20113,11.2745098 L206.036158,28.5714286 L218.225989,28.5714286 L212.20113,11.2745098 Z M226.842938,49.6498599 L220.958192,35.2240896 L203.374011,35.2240896 C201.482486,39.7058824 199.030508,45.5882353 197.489266,49.6498599 L189.853107,49.6498599 L209.538983,0 L214.723164,0 L234.40904,49.6498599 L226.842938,49.6498599 Z M242.045198,0.700280112 L242.045198,42.5770308 L265.093785,42.5770308 L265.093785,49.6498599 L234.969492,49.6498599 L234.969492,0.700280112 L242.045198,0.700280112 Z M274.971751,28.7114846 L274.971751,42.5770308 L297.740113,42.5770308 L297.740113,49.6498599 L267.825989,49.6498599 L267.825989,0.700280112 L297.670056,0.700280112 L297.670056,7.77310924 L274.971751,7.77310924 L274.971751,21.5686275 L297.179661,21.5686275 L297.179661,28.7114846 L274.971751,28.7114846 Z M310.560452,28.1512605 L310.560452,24.789916 L318.827119,24.789916 C324.781921,24.789916 327.724294,20.5182073 327.724294,16.2464986 C327.724294,12.0448179 324.781921,7.77310924 318.827119,7.77310924 L307.968362,7.77310924 L307.968362,49.6498599 L300.962712,49.6498599 L300.962712,0.630252101 L318.827119,0.630252101 C329.475706,0.630252101 334.8,8.47338936 334.8,16.2464986 C334.8,23.1792717 330.526554,29.7619048 322.119774,31.232493 L337.60226,49.6498599 L328.424859,49.6498599 L310.560452,28.1512605 Z M357.218079,49.859944 L350.142373,49.859944 L350.142373,7.77310924 L335.290395,7.77310924 L335.290395,0.630252101 L372,0.630252101 L372,7.77310924 L357.218079,7.77310924 L357.218079,49.859944 Z" id="CRAFTALERT"></path>
        </g>
    </g>
</svg>
